HIERARCHY
ROOT hip
{
  OFFSET 0 0 0
  CHANNELS 6 Xposition Yposition Zposition Zrotation Yrotation Xrotation
  JOINT abdomen
  {
    OFFSET 0 20.6881 -0.73152
    CHANNELS 3 Zrotation Xrotation Yrotation
    JOINT chest
    {
      OFFSET 0 11.7043 -0.48768
      CHANNELS 3 Zrotation Xrotation Yrotation
      JOINT neck
      {
        OFFSET 0 22.1894 -2.19456
        CHANNELS 3 Zrotation Xrotation Yrotation
        JOINT head
        {
          OFFSET -0.24384 7.07133 1.2192
          CHANNELS 3 Zrotation Xrotation Yrotation
          JOINT leftEye
          {
            OFFSET 4.14528 8.04674 8.04672
            CHANNELS 3 Zrotation Xrotation Yrotation
            End Site
            {
              OFFSET 1 0 0
            }
          }
          JOINT rightEye
          {
            OFFSET -3.6576 8.04674 8.04672
            CHANNELS 3 Zrotation Xrotation Yrotation
            End Site
            {
              OFFSET 1 0 0
            }
          }
        }
      }
      JOINT rCollar
      {
        OFFSET -2.68224 19.2634 -4.8768
        CHANNELS 3 Zrotation Xrotation Yrotation
        JOINT rShldr
        {
          OFFSET -8.77824 -1.95073 1.46304
          CHANNELS 3 Zrotation Xrotation Yrotation
          JOINT rForeArm
          {
            OFFSET -28.1742 -1.7115 0.48768
            CHANNELS 3 Zrotation Xrotation Yrotation
            JOINT rHand
            {
              OFFSET -22.5879 0.773209 7.07136
              CHANNELS 3 Zrotation Xrotation Yrotation
              JOINT rThumb1
              {
                OFFSET -1.2192 -0.487915 3.41376
                CHANNELS 3 Zrotation Xrotation Yrotation
                JOINT rThumb2
                {
                  OFFSET -3.37035 -0.52449 3.41376
                  CHANNELS 3 Zrotation Xrotation Yrotation
                  End Site
                  {
                    OFFSET -1.78271 -1.18214 1.43049
                  }
                }
              }
              JOINT rIndex1
              {
                OFFSET -7.75947 0.938293 5.60832
                CHANNELS 3 Zrotation Xrotation Yrotation
                JOINT rIndex2
                {
                  OFFSET -2.54057 -0.884171 1.56538
                  CHANNELS 3 Zrotation Xrotation Yrotation
                  End Site
                  {
                    OFFSET -1.62519 -0.234802 1.16502
                  }
                }
              }
              JOINT rMid1
              {
                OFFSET -8.24714 1.18213 3.41376
                CHANNELS 3 Zrotation Xrotation Yrotation
                JOINT rMid2
                {
                  OFFSET -3.10165 -0.590103 1.0647
                  CHANNELS 3 Zrotation Xrotation Yrotation
                  End Site
                  {
                    OFFSET -2.48547 -0.328903 0.83742
                  }
                }
              }
              JOINT rRing1
              {
                OFFSET -8.82822 0.546677 1.51678
                CHANNELS 3 Zrotation Xrotation Yrotation
                JOINT rRing2
                {
                  OFFSET -2.60934 -0.819778 -0.0198488
                  CHANNELS 3 Zrotation Xrotation Yrotation
                  End Site
                  {
                    OFFSET -2.33842 -0.294052 0.168128
                  }
                }
              }
              JOINT rPinky1
              {
                OFFSET -8.27202 -0.0477905 -0.4584
                CHANNELS 3 Zrotation Xrotation Yrotation
                JOINT rPinky2
                {
                  OFFSET -1.82734 -0.647385 -0.700984
                  CHANNELS 3 Zrotation Xrotation Yrotation
                  End Site
                  {
                    OFFSET -1.69225 -0.51767 -0.607171
                  }
                }
              }
            }
          }
        }
      }
      JOINT lCollar
      {
        OFFSET 2.68224 19.2634 -4.8768
        CHANNELS 3 Zrotation Xrotation Yrotation
        JOINT lShldr
        {
          OFFSET 8.77824 -1.95073 1.46304
          CHANNELS 3 Zrotation Xrotation Yrotation
          JOINT lForeArm
          {
            OFFSET 28.1742 -1.7115 0.48768
            CHANNELS 3 Zrotation Xrotation Yrotation
            JOINT lHand
            {
              OFFSET 22.5879 0.773209 7.07136
              CHANNELS 3 Zrotation Xrotation Yrotation
              JOINT lThumb1
              {
                OFFSET 1.2192 -0.487915 3.41376
                CHANNELS 3 Zrotation Xrotation Yrotation
                JOINT lThumb2
                {
                  OFFSET 3.37035 -0.52449 3.41376
                  CHANNELS 3 Zrotation Xrotation Yrotation
                  End Site
                  {
                    OFFSET 1.78271 -1.18214 1.43049
                  }
                }
              }
              JOINT lIndex1
              {
                OFFSET 7.75947 0.938293 5.60832
                CHANNELS 3 Zrotation Xrotation Yrotation
                JOINT lIndex2
                {
                  OFFSET 2.54057 -0.884171 1.56538
                  CHANNELS 3 Zrotation Xrotation Yrotation
                  End Site
                  {
                    OFFSET 1.62519 -0.234802 1.16502
                  }
                }
              }
              JOINT lMid1
              {
                OFFSET 8.24714 1.18213 3.41376
                CHANNELS 3 Zrotation Xrotation Yrotation
                JOINT lMid2
                {
                  OFFSET 3.10165 -0.590103 1.0647
                  CHANNELS 3 Zrotation Xrotation Yrotation
                  End Site
                  {
                    OFFSET 2.48547 -0.328903 0.83742
                  }
                }
              }
              JOINT lRing1
              {
                OFFSET 8.82822 0.546677 1.51678
                CHANNELS 3 Zrotation Xrotation Yrotation
                JOINT lRing2
                {
                  OFFSET 2.60934 -0.819778 -0.0198488
                  CHANNELS 3 Zrotation Xrotation Yrotation
                  End Site
                  {
                    OFFSET 2.33842 -0.294052 0.168128
                  }
                }
              }
              JOINT lPinky1
              {
                OFFSET 8.27202 -0.0477905 -0.4584
                CHANNELS 3 Zrotation Xrotation Yrotation
                JOINT lPinky2
                {
                  OFFSET 1.82734 -0.647385 -0.700984
                  CHANNELS 3 Zrotation Xrotation Yrotation
                  End Site
                  {
                    OFFSET 1.69225 -0.51767 -0.607171
                  }
                }
              }
            }
          }
        }
      }
    }
  }
  JOINT rButtock
  {
    OFFSET -8.77824 4.35084 1.2192
    CHANNELS 3 Zrotation Xrotation Yrotation
    JOINT rThigh
    {
      OFFSET 0 -1.70687 -2.19456
      CHANNELS 3 Zrotation Xrotation Yrotation
      JOINT rShin
      {
        OFFSET 0 -36.8199 0.73152
        CHANNELS 3 Zrotation Xrotation Yrotation
        JOINT rFoot
        {
          OFFSET 0.73152 -45.1104 -5.12064
          CHANNELS 3 Zrotation Xrotation Yrotation
          End Site
          {
            OFFSET -1.1221 -3.69964 12.103
          }
        }
      }
    }
  }
  JOINT lButtock
  {
    OFFSET 8.77824 4.35084 1.2192
    CHANNELS 3 Zrotation Xrotation Yrotation
    JOINT lThigh
    {
      OFFSET 0 -1.70687 -2.19456
      CHANNELS 3 Zrotation Xrotation Yrotation
      JOINT lShin
      {
        OFFSET 0 -36.8199 0.73152
        CHANNELS 3 Zrotation Xrotation Yrotation
        JOINT lFoot
        {
          OFFSET -0.73152 -45.1104 -5.12064
          CHANNELS 3 Zrotation Xrotation Yrotation
          End Site
          {
            OFFSET 1.1221 -3.69964 12.103
          }
        }
      }
    }
  }
}
MOTION
Frames:	6
Frame Time:	0.00833333
47.3021 82.4651 29.9443 -175.305 35.6442 -162.807 -4.27233 6.0774 -5.82545 6.67047 2.634 -1.7454 -10.5272 4.10684 -5.37254 21.0616 20.4261 -7.63924 -0.0 0.0 0.0 -0.0 0.0 0.0 -1.59009e-14 -3.54632e-13 -2.73428e-13 77.4216 10.794 1.95686 -13.3409 -6.43469 24.2371 -0.0151585 -3.51283 -0.494322 1.47711e-09 2.20342e-10 -1.47351e-09 2.55478e-09 3.80073e-10 -2.55001e-09 1.47712e-09 2.20331e-10 -1.47351e-09 7.73091 5.47488 0.417314 1.47712e-09 2.20329e-10 -1.4735e-09 2.90554 0.965183 0.102902 1.47712e-09 2.2033e-10 -1.4735e-09 10.2786 0.731801 0.0259123 1.47711e-09 2.20335e-10 -1.47349e-09 2.22167 -0.733487 -0.20892 -1.59554e-14 -3.54632e-13 -2.73627e-13 -79.1203 20.371 -2.5875 14.5396 -7.39815 -26.6461 0.0378215 5.54226 -0.781377 2.33743e-09 -4.70604e-10 8.81602e-10 4.04684e-09 -8.24711e-10 1.51216e-09 2.33742e-09 -4.70608e-10 8.81599e-10 -7.73091 5.47488 -0.417314 2.33743e-09 -4.70607e-10 8.81602e-10 -2.90554 0.965183 -0.102902 2.33743e-09 -4.70607e-10 8.81598e-10 -10.2786 0.731801 -0.0259123 2.33744e-09 -4.70604e-10 8.81593e-10 -2.22167 -0.733487 0.20892 -2.03217e-16 0.0 -3.88251e-19 -0.561118 -36.3289 -8.90364 -0.14536 23.609 0.382704 -1.55298 -1.53477 -6.77469 2.03217e-16 0.0 3.88251e-19 -0.57076 -6.05458 10.1996 -0.027625 12.4409 -0.563624 0.836102 -8.05617 2.09959
47.4735 82.5588 29.9841 -175.023 35.5294 -162.405 -4.14513 6.06457 -5.1663 6.52202 2.61546 -1.55183 -10.3869 3.9718 -5.56431 21.3063 20.362 -8.06367 -0.0 0.0 0.0 -0.0 0.0 0.0 1.0962e-13 -2.99445e-13 -5.40344e-13 77.6952 10.4178 2.03452 -13.4421 -6.51357 24.437 -0.0161484 -3.6342 -0.511441 1.27164e-09 -8.78108e-10 -2.58702e-09 2.20594e-09 -1.52017e-09 -4.47793e-09 1.27165e-09 -8.78116e-10 -2.58702e-09 7.73091 5.47488 0.417314 1.27165e-09 -8.78117e-10 -2.58701e-09 2.90554 0.965183 0.102902 1.27165e-09 -8.78116e-10 -2.58701e-09 10.2786 0.731801 0.0259123 1.27164e-09 -8.78113e-10 -2.587e-09 2.22167 -0.733487 -0.20892 1.09511e-13 -2.99445e-13 -5.40551e-13 -78.8385 20.6884 -2.91921 14.4951 -7.36083 -26.5559 0.033992 5.28308 -0.744587 2.26691e-09 -2.18085e-09 -6.95551e-11 3.92164e-09 -3.78473e-09 -1.33041e-10 2.2669e-09 -2.18086e-09 -6.95532e-11 -7.73091 5.47488 -0.417314 2.26691e-09 -2.18086e-09 -6.95546e-11 -2.90554 0.965183 -0.102902 2.26691e-09 -2.18086e-09 -6.95574e-11 -10.2786 0.731801 -0.0259123 2.26692e-09 -2.18085e-09 -6.95617e-11 -2.22167 -0.733487 0.20892 -2.03217e-16 0.0 -3.88251e-19 -0.209593 -36.1541 -8.64939 -0.144113 23.4435 0.376072 -1.55445 -1.55304 -6.76579 2.03217e-16 0.0 3.88251e-19 -0.375633 -6.18654 10.1296 -0.026583 12.9049 -0.56291 0.885436 -7.96267 2.38695
47.5195 82.6862 30.1135 -175.157 35.0061 -161.979 -4.09021 6.10085 -4.04247 6.15781 2.60233 -1.22208 -9.94484 3.8025 -5.95856 21.7313 20.209 -8.94776 -0.0 0.0 0.0 -0.0 0.0 0.0 2.77136e-13 -2.0137e-13 -8.90058e-13 78.2987 9.48857 2.02254 -13.5722 -6.61519 24.6954 -0.0177991 -3.81874 -0.537484 1.18006e-09 -2.33482e-09 -3.70691e-09 2.05613e-09 -4.0403e-09 -6.4167e-09 1.18007e-09 -2.33483e-09 -3.70691e-09 7.73091 5.47488 0.417314 1.18007e-09 -2.33483e-09 -3.7069e-09 2.90554 0.965183 0.102902 1.18007e-09 -2.33482e-09 -3.7069e-09 10.2786 0.731801 0.0259123 1.18006e-09 -2.33482e-09 -3.70689e-09 2.22167 -0.733487 -0.20892 2.7696e-13 -2.01369e-13 -8.90276e-13 -78.0952 21.622 -3.55168 14.4296 -7.30593 -26.4236 0.0285967 4.86536 -0.685398 2.15559e-09 -4.21229e-09 -1.44958e-09 3.72399e-09 -7.30053e-09 -2.51985e-09 2.15558e-09 -4.21229e-09 -1.44956e-09 -7.73091 5.47488 -0.417314 2.15559e-09 -4.2123e-09 -1.44957e-09 -2.90554 0.965183 -0.102902 2.15559e-09 -4.2123e-09 -1.44957e-09 -10.2786 0.731801 -0.0259123 2.1556e-09 -4.21229e-09 -1.44958e-09 -2.22167 -0.733487 0.20892 -2.03217e-16 0.0 -3.88251e-19 0.107201 -35.9694 -8.3848 -0.142913 23.305 0.370525 -1.5698 -1.61849 -6.83325 2.03217e-16 0.0 3.88251e-19 -0.206326 -6.3178 9.95364 -0.0261726 13.3657 -0.5614 0.943629 -7.76439 2.76107
47.9646 82.7013 29.7788 -174.955 36.2325 -162.437 -4.06976 6.14113 -2.90496 5.75518 2.6267 -0.889495 -9.43279 3.62577 -6.36574 22.1388 19.9868 -9.86443 -0.0 0.0 0.0 -0.0 0.0 0.0 4.28944e-13 -1.24665e-13 -1.22566e-12 78.943 8.53195 2.05688 -13.7035 -6.71818 24.9581 -0.0196866 -4.01022 -0.564525 1.24295e-09 -3.71553e-09 -4.61032e-09 2.17271e-09 -6.42903e-09 -7.98062e-09 1.24295e-09 -3.71552e-09 -4.61032e-09 7.73091 5.47488 0.417314 1.24295e-09 -3.71552e-09 -4.61032e-09 2.90554 0.965183 0.102902 1.24295e-09 -3.71552e-09 -4.61032e-09 10.2786 0.731801 0.0259123 1.24294e-09 -3.71552e-09 -4.61031e-09 2.22167 -0.733487 -0.20892 4.28713e-13 -1.24663e-13 -1.22589e-12 -77.2414 22.6606 -4.23072 14.3861 -7.26963 -26.3358 0.023481 4.39937 -0.619492 2.1103e-09 -6.01538e-09 -2.79026e-09 3.64045e-09 -1.04214e-08 -4.83871e-09 2.1103e-09 -6.01537e-09 -2.79024e-09 -7.73091 5.47488 -0.417314 2.1103e-09 -6.01538e-09 -2.79026e-09 -2.90554 0.965183 -0.102902 2.1103e-09 -6.01538e-09 -2.79026e-09 -10.2786 0.731801 -0.0259123 2.1103e-09 -6.01538e-09 -2.79026e-09 -2.22167 -0.733487 0.20892 -2.03217e-16 0.0 -3.88251e-19 0.36049 -35.7929 -8.12542 -0.14187 23.2042 0.366165 -1.59245 -1.71438 -6.93678 2.03217e-16 0.0 3.88251e-19 -0.0680514 -6.44761 9.76115 -0.0260563 13.8174 -0.559478 0.990859 -7.52666 3.09546
48.1512 82.6539 29.6529 -175.095 36.2384 -162.623 -4.04224 6.14341 -2.20518 5.49094 2.72082 -0.6874 -9.07956 3.46844 -6.59644 22.3366 19.7224 -10.389 -0.0 0.0 0.0 -0.0 0.0 0.0 5.07343e-13 -1.33584e-13 -1.45023e-12 79.3457 8.07392 2.27147 -13.8094 -6.8016 25.1713 -0.0211941 -4.15242 -0.584618 1.50086e-09 -4.58594e-09 -5.07442e-09 2.62302e-09 -7.93506e-09 -8.78396e-09 1.50086e-09 -4.58593e-09 -5.07442e-09 7.73091 5.47488 0.417314 1.50086e-09 -4.58593e-09 -5.07442e-09 2.90554 0.965183 0.102902 1.50086e-09 -4.58593e-09 -5.07441e-09 10.2786 0.731801 0.0259123 1.50086e-09 -4.58593e-09 -5.0744e-09 2.22167 -0.733487 -0.20892 5.07089e-13 -1.33584e-13 -1.45048e-12 -76.6675 23.2983 -4.68605 14.4079 -7.28839 -26.3785 0.0196181 3.99537 -0.562434 2.23788e-09 -7.04056e-09 -3.62343e-09 3.85755e-09 -1.21967e-08 -6.28009e-09 2.23788e-09 -7.04055e-09 -3.6234e-09 -7.73091 5.47488 -0.417314 2.23788e-09 -7.04056e-09 -3.62342e-09 -2.90554 0.965183 -0.102902 2.23788e-09 -7.04056e-09 -3.62342e-09 -10.2786 0.731801 -0.0259123 2.23789e-09 -7.04056e-09 -3.62342e-09 -2.22167 -0.733487 0.20892 -2.03217e-16 0.0 -3.88251e-19 0.522147 -35.6433 -7.8864 -0.141094 23.152 0.363095 -1.61563 -1.82399 -7.03607 2.03217e-16 0.0 3.88251e-19 0.0347913 -6.57521 9.64174 -0.0258828 14.254 -0.557529 1.01073 -7.31504 3.26404
48.2628 82.5735 29.515 -175.528 36.1621 -162.866 -4.02593 6.08386 -2.14325 5.43605 2.93669 -0.676788 -8.96921 3.34171 -6.56971 22.2456 19.3743 -10.3429 -0.0 0.0 0.0 -0.0 0.0 0.0 4.83738e-13 -3.07752e-13 -1.57081e-12 79.3929 8.32542 2.76896 -13.8717 -6.85084 25.2973 -0.0217303 -4.1945 -0.590573 2.2432e-09 -4.8331e-09 -5.00016e-09 3.90629e-09 -8.36325e-09 -8.65504e-09 2.2432e-09 -4.83309e-09 -5.00016e-09 7.73091 5.47488 0.417314 2.2432e-09 -4.83309e-09 -5.00016e-09 2.90554 0.965183 0.102902 2.24321e-09 -4.83309e-09 -5.00015e-09 10.2786 0.731801 0.0259123 2.2432e-09 -4.83309e-09 -5.00014e-09 2.22167 -0.733487 -0.20892 4.83512e-13 -3.07761e-13 -1.57109e-12 -76.549 23.2996 -4.80442 14.5261 -7.38836 -26.6159 0.016935 3.69297 -0.519753 2.80605e-09 -7.0212e-09 -3.76671e-09 4.83874e-09 -1.21659e-08 -6.52929e-09 2.80604e-09 -7.02119e-09 -3.76668e-09 -7.73091 5.47488 -0.417314 2.80605e-09 -7.0212e-09 -3.7667e-09 -2.90554 0.965183 -0.102902 2.80604e-09 -7.0212e-09 -3.7667e-09 -10.2786 0.731801 -0.0259123 2.80605e-09 -7.0212e-09 -3.76671e-09 -2.22167 -0.733487 0.20892 -2.03217e-16 0.0 -3.88251e-19 0.55148 -35.5468 -7.63126 -0.140683 23.1712 0.361991 -1.64275 -1.94686 -7.16324 2.03217e-16 0.0 3.88251e-19 0.070343 -6.69499 9.63142 -0.0256983 14.6434 -0.555172 0.993779 -7.12659 3.19402
